/* XPM */
static const char *ericsson_landscape3[] = {
/* columns rows colors chars-per-pixel */
 "250 51 21 1 ",
"  c #172E66",
". c #182F66",
"X c #193066",
"o c #1B326A",
"O c #21376B",
"+ c #233A6E",
"@ c #283D6F",
"# c #263C70",
"$ c #293E71",
"% c #2C4173",
"& c #304575",
"* c #334778",
"= c #354A7A",
"- c #384B7A",
"; c #3D517E",
": c #3D5080",
"> c #4A5B86",
", c #55658D",
"< c #576890",
"1 c #606F95",
"2 c None",
/* pixels */
"2222222222222222222222222222222222222222222222222222222222222222222222222222222222222222222222222222222222222222222222222222222222222222222222222222222222222222222222222222222222222222222222222222222222222222222222222222222222222222222222222222222222",
"2222222222222222222222222222222222222222222222222222222222222222222222222222222222222222222222222222222222222222222222222222222222222222222222222222222222222222222222222222222222222222222222222222222222222222222222222222222222222222222222222:o=222222",
"22222222222222222222222222222222222222222222222222222222222222222222222222222222222222222222222222222222222222222222222222222222222222222222222222222222222222222222222222222222222222222222222222222222222222222222222222222222222222222222222+ooX.o#2222",
"22222222222222222222222222222222222222222222222222222222222222222222222222222222222222222222222222222222222222222222222222222222222222222222222222222222222222222222222222222222222222222222222222222222222222222222222222222222222222222222#ooXXXXXoo%222",
"22222222222222222222222222222222222222222222222222222222222222222222222222222222222222222222222222222222222222222222222222222222222222222222222222222222222222222222222222222222222222222222222222222222222222222222222222222222222222222%OoooXXXXXX.Xo222",
"22222222222222222222222222222222222222222222222222222222222222222222222222222222222222222222222222222222222222222222222222222222222222222222222222222222222222222222222222222222222222222222222222222222222222222222222222222222222222%oooXXX.XXXXXXXXo>22",
"222222222222222222222222222222222222222222222222222222222222222222222222222222222222222222222222222222222222222222222222222222222222222222222222222222222222222222222222222222222222222222222222222222222222222222222222222222222222+ooXXXXXXXXXXXXXXX ,22",
"222222222222222222222222222222222222222222222222222222222222222222222222222222222222222222222222222222222222222222222222222222222222222222222222222222222222222222222222222222222222222222222222222222222222222222222222222222222+oooXXXXXXXXXXXXXXXXXo222",
"222222222222222222222222222222222222222222222222222222222222222222222222222222222222222222222222222222222222222222222222222222222222222222222222222222222222222222222222222222222222222222222222222222222222222222222222222222+oooXXXXXXXXXXXXXXXXXXo.+222",
"222222222222222222222222222222222222222222222222222222222222222222222222222222222222222222222222222222222222222222222222222222222222222222222222222222222222222222222222222222222222222222222222222222222222222222222222222$OoooXXXXXXXXXXXXXXXXXXXoo+2222",
"222222222222222222222222222222222222222222222222222222222222222222222222222222222222222222222222222222222222222222222222222222222222222222222222222222222222222222222222222222222222222222222222222222222222222222222222$OOoXXXXXXXXXXXXXXXXXXXX.oo+222222",
"2222222222222222222222222222222222222222222222222222222222222222222222222222222222222222222222222222222222222222222222222222222222222222222222222222222222222222222222222222222222222222222222222222222222222222222222+oo...XXXXXXXXXXXXXXXXXXooo%22222222",
"22222222222222222222222222222222222222222222222222222222222222222222222222222222222222222222222222222222222222222222222222222222222222222222222222222222222222222222222222222222222222222222222222222222222222222222$ooXXXXXXXXXXXXXXXXXXXXoo++22222222222",
"2222222222222222222222222222222222222222222222222222222222222222222222222222222222222222222222222222222222222222222222222222222222222222222222222222222222222222222222222222222222222222222222222222222222222222222&oXXXXXXXXXXXXXXXXXXXooo+22222222222222",
"2222222222222222222222222222222222222222222222222222222222222222222222222222222222222222222222222222222222222222222222222222222222222222222222222222222222222222222222222222222222222222222222222222222222222222222oXXXXXXXXXXXXXXX XXoo+22222222222222222",
"2222222222222222222222222222222222222222222222222222222222222222222222222222++%+%O+222222222222222+o*&o+222222222222222$o%=o++222222222222222++++++o$22222222222222222222222222222222222222222222222222222222222222+XXXXXXXXXXXXXXXoo+@22222222222=%222222",
"2222XXXXXXXXXXXXXXXX...+22222.o.XXXXXXXXXXXoo*222222222.XXXXo.22222222222+ooooo ooooo+#22222222Ooooo.oooooXX22222222Oooooo.ooooo@2222222222+oooX o oooO+222222222XoXX.XXXo222222222oXXXXX22222222222222222222222222oXXXXXXXXX..Xoo+$22222222222#ooooo$2222",
"2222XXXXXXXXXXX.XXXXo..+22222.oXXXXXXXXXXXXXooo+2222222oXXXXo.222222222+ooXXXXXX. XXXXo222222#ooX..X.XXXXXX+222222+ooXXX..XXXXXoX22222222+ooXXXXXXXXXXXoO22222222XoXo XXXXo22222222oo XXo22222222222222222222222222OXoXXXXXXXooo+22222222222+ooo.o.XXo%222",
"2222XXXXXXXXXXo.XXXX . #22222Xo.XXXXXXXXXXXXXXXo%222222oXXXXo.2222222%ooXXXXX..XXoX XXo22222o.XXXXXXXXXXXXoo22222+o.XXX.XXXXX.Xo+2222222#oXXXXXXXXXXXXXXoo$222222XoXXXXXXXo&2222222oXXXXO222222222222222222222222222ooXXXXooo#22222222222$OooXXXXXXXXXo222",
"2222XXXXXXX... . ...   +22222 o.XXXXXoXoXXXXXXXXo222222XXXX.o.222222%oXXXXXXXoooooooooo2222+o XXXXXooXooooo%2222OoX.XXXXooXXoo oX222222o.XXXXXXooXoXXXXXX.o222222ooXXXXXXXXo2222222oXXXXO2222222222222222222222222222oooooO22222222222%ooooXXXXXXXXXXX ,22",
"2222XXXXXXXo+++++++++++%22222.oXXXXXXXXoooXXXXXXo+22222oXXXXo.22222%oXXXXXXoo++222@+ooo222%oXXXXXo#22222&#o+2222oXXXXXo+222222OoO22222+o..XXXoo#222+o..XXXoO22222.oXXXXXXXXo+222222oXXXXX222222222222222222222222222222-&22222222222+ooXXXXXXXXXXXXXXX 122",
"2222XXXXXXX&22222222222222222XoXXX.+222222+oXXXXXo22222oXXXXo.22222oXXXXXXo+2222222222%222+XXXXXo%2222222222222+oXXX o+222222222222222oXX.X.oo222222=oXXXX.o+2222.oXXXXXXXXXo222222oXXXXO2222222222222222222222222222222222222222+ooXXXXXXXXXXXXXXXX..o222",
"2222XXXXXXo222222222222222222Xo XXX@2222222oXXXXoX22222XXXXXo.2222+oXXXXXo+222222222222222ooXXXXo22222222222222+oXXXXo222222222222222$o.XXX.o22222222OXXXX..O2222Xo.XXXXXXXXo+22222oXXXXX2222222222222222222222222222222222222$oooXXXXXXXXXXXXXXXXXXoo+222",
"2222XXXXXXo222222222222222222 o.XX.+2222222XXXXXXo22222XXXXXo.2222oXXXXXo+2222222222222222XXXXXXo#2222222222222%o XXXo+22222222222222OXXXXXo%222222222oXXXX.o2222ooXXXXXXXXXXX22222oXXXXO2222222222222222222222222222222222%OooXXXXXXXXXXXXXXXXXXXXXo$2222",
"2222XXXXXXo222222222222222222.oXXXX+2222222oXXX Xo22222oXXXXXX2222ooXXX.o22222222222222222+XXXXXXo+222222222222ooXXXXXo+2222222222222oXXXXoo2222222222+oXXXXo@222XoXXXXoXXXXXo%2222oXXXXX2222222222222222222222222222222%+oooXXXXXXXXXXXXXXXXXXXXoo+222222",
"2222XXXXXXoX22222222222222222XoXXXX+222222%oXXXoo%22222XXXXXo.222+oXXXXoO22222222222222222%oX.XXXXooo$2222222222oXXXXXXoo+$2222222222oXXX.oO2222222222$oXXXX.+222XoXXXXo@oXXXXo2222oXXXXo22222222222222222222222222222+oooXX .XXXXXXXXXXXXXXX.ooo#22222222",
"2222XXXXXX.ooooooooooooo22222Xo XXXo+222+OXXXXX.%222222oXXXXo.222+XXXXooo222222222222222222oo.X.XXXXoooo#2222222+XXXXXXXXoooo#222222%oXXXXoo22222222222oXXX.oX222 o..Xo 2XXXXXo%222oXXXXO222222222222222222222222222+ooX XXXXXXXXXXXXXXXXXXooo%22222222222",
"2222XXXXXXXXXXX.XXX. oo.22222 oXXXXXooooooXXXXo#2222222XXXXXXX222XoXXX o&2222222222222222222ooX.XXXXXXXXoo#222222oXXXXXXXX XXoo%2222ooXXXXo.22222222222oXXXX.+222ooX..o.2@oXXXXo222oXXXXX22222222222222222222222222$oXXXXXXXXXXXXXXXXXXXooo#22222222222222",
"2222XXXXXXXX..XXX.XX..o.22222.oXXXXXXXXX.XXXXO222222222oXXXXo.222XXXXXXo222222222222222222222OooXXXXXXXXXXo%222222Ooo.XXXXXXXXXoo222.oXXXXoX22222222222oXXXX.+222ooXXXo.22oXXXXo+22oXXXXO22222222222222222222222222oXXXXXXXXXXXXXXXXX.oo+22222222222222222",
"2222XXXXXXXXXoXXo oXoXoo22222XoXXXXXXXXXXXX.XX%22222222oXXXXo.222ooXXXXo&222222222222222222222OOooXXXXXXXXXo2222222&Ooo.XXXXXXXXo%22+oXXXXoX22222222222oXXXXXO222.oXXXoX22&oXXXXo22oXXXXX22222222222222222222222222OXXXXXXXXXXXXXXoooO#22222222222%2222222",
"2222XXXXXXXXXXXXXX..XXoX22222Xo XXXXo.ooXXXXXXo&2222222oXXXXo.222+XXXXXoX222222222222222222222222%ooXXXXXX.o#222222222++ooXXXXXXXo22%oXXXXoO22222222222oXXXXoo222oo..XoX222+XXXXoo2oXXXXO22222222222222222222222222oXXXXXXXXXXXXooo#22222222222+ooooo#2222",
"2222XXXXXXo222222222222222222 o.X..o%;-+XXXXXXoo2222222XXXX.o.222%oXXXXX+222222222222222222222222222+oXXXXXXo222222222222$oXXXXXXo222oXXXXXo2222222222#oXXXXo+222Xo XXo 2222oXXXXXoXXXXXX22222222222222222222222222OXXXXXXXXXooo+22222222222+oooXXXXXo%222",
"2222XXXXXXo222222222222222222XoXXX.O22222oXXXXXo2222222o.XXXo.2222oXXXXXo22222222222222222222222222222oXXXXXo22222222222222oXXXXXo222oXXXXXo2222222222oXXXXXo%222XoXX.oX2222+XXXXXXXXXXXo222222222222222222222222222oXoXXXooo+22222222222#+oo.XXXXXXXXo222",
"2222XXXXXXo222222222222222222.o XX.O22222%oXXXXo+222222oXXXXo.2222+XXXXXo+2222222222222222222222222222+XXXXXo22222222222222ooXXXXo222+oXXX.o+222222222oXXXXXo2222.oXX.oX22222oX.XXXXXXXXo2222222222222222222222222222ooooo#$2222222222%oooXX..XXXXXXXXo>22",
"2222XXXXXXo222222222222222222XoXXX.O222222oXXXXXo222222XXXXXo.2222OoXXXX.X+222222222222222222222222222oXXXXXo22222222222222oXXXXXo2222oXXXXXo22222222ooXXX.o+2222ooXX.XX22222oo.XXXXXXXXO222222222222222222222222222222o22222222222%+ooXXXXXXXXXXXXXXX ,22",
"2222XXXXXXo.22222222222222222 o.XX.O222222+XXXXXo222222oXXXXo.22222OXXXXXX.o%222222222#2222o+22222222%XXXXXX+222+#22222222+oXXXXXo2222+XXXXXXo222222ooXXXXXo22222.oXXXo.222222o.XXXXXXXXX2222222222222222222222222222222222222222#oooXXXXXXXXXXXXXX.XXo222",
"2222XXXXXXXXoXoXoo.ooooo22222Xo.XXXO222222+oXXXXo+22222oXXXXo.222222ooXXXXXXooo+XXO+ooo2222oooXO+Xo+ooXXXXXo$222Xoooo+XX+ooXXXXXo%22222oXXXXXoo++O+oXXXXo.o#22222XoXXXo.222222@oXXXXXXXXO2222222222222222222222222222222222222#oooXXXXXXXXXXXXXXXXX Xo+222",
"2222XXXXXXXX.XXXXX.X X.o22222.oXXX O2222222oXXXXXo22222XXXX.o.2222222oXXXXXXXXXoooo. oo2222oXXXXXooXXXXXXXoo2222o.XXXoooo..XXXXX+222222+oXX X  oXooXXXXX oo222222XoXXXo.2222222OXXXXXXXXX2222222222222222222222222222222222%OooXXXXXXXXXXXXXXXXXXXXoo+2222",
"2222XXXXXX..X.XXXX...X o22222.oXXX.O2222222+oXXXXo#2222oXXXXo.22222222+oX XXXX..XX.Xo o2222oXXXXXXXXXXXXXoo22222ooXXXXXX..XXXXX+22222222%oooXXXXXXXXXXXXoO2222222oo..XoX2222222$oXXXXXXXO2222222222222222222222222222222$oooXXXXXXXXXXXXXXXXXXXX.oo+222222",
"2222XXoXXXoXX.oXXXXoXXoo22222Xo XX +2222222%oXXXXXO2222oXXXXo 222222222+oooXXXXoXXXX. O222$OoXXXXXXXXXXoo$222222ooXXXXXXXXXXoo#22222222222+oXXXXXXXXXooo%22222222 oooXoX22222222oXXX.oXXX22222222222222222222222222222+oooXXXXXXXXXXXXXXXXXXX.oo+$22222222",
"2222XXXXXXXXXXXXXXXXXXXo22222.oXXX.O22222222oXXXXXo2222oXXXXoX22222222222%+oooooooooo+#2222++oOoooooooO%222222222+Ooooooooo+$222222222222222#oooooooo#%2222222222XoXXXo.22222222@.XXXXXXo222222222222222222222222222$oo XXXXXXXXXXXXXXXXXXXoo+%22222222222",
"222222222222222222222222222222222222222222222222222222222222222222222222222222#-=$222222222222222222222222222222222222222222222222222222222222222222222222222222222222222222222222222222222222222222222222222222222&oXXXXXXXXXXXXXXXXXXX.oo#22222222222222",
"2222222222222222222222222222222222222222222222222222222222222222222222222222222222222222222222222222222222222222222222222222222222222222222222222222222222222222222222222222222222222222222222222222222222222222222OoXXXXXXXXXXXXXXXXooo+22222222222222222",
"2222222222222222222222222222222222222222222222222222222222222222222222222222222222222222222222222222222222222222222222222222222222222222222222222222222222222222222222222222222222222222222222222222222222222222222oXXXXXXXXXXXXXX.oo+$2222222222222222222",
"2222222222222222222222222222222222222222222222222222222222222222222222222222222222222222222222222222222222222222222222222222222222222222222222222222222222222222222222222222222222222222222222222222222222222222222oXXXXXXXXXXXXooo%2222222222222222222222",
"2222222222222222222222222222222222222222222222222222222222222222222222222222222222222222222222222222222222222222222222222222222222222222222222222222222222222222222222222222222222222222222222222222222222222222222+XXXXXXXXXooo#2222222222222222222222222",
"22222222222222222222222222222222222222222222222222222222222222222222222222222222222222222222222222222222222222222222222222222222222222222222222222222222222222222222222222222222222222222222222222222222222222222222ooXXXXXoo+2222222222222222222222222222",
"222222222222222222222222222222222222222222222222222222222222222222222222222222222222222222222222222222222222222222222222222222222222222222222222222222222222222222222222222222222222222222222222222222222222222222222+o.Xo+2222222222222222222222222222222",
"22222222222222222222222222222222222222222222222222222222222222222222222222222222222222222222222222222222222222222222222222222222222222222222222222222222222222222222222222222222222222222222222222222222222222222222222><222222222222222222222222222222222",
"2222222222222222222222222222222222222222222222222222222222222222222222222222222222222222222222222222222222222222222222222222222222222222222222222222222222222222222222222222222222222222222222222222222222222222222222222222222222222222222222222222222222",
"2222222222222222222222222222222222222222222222222222222222222222222222222222222222222222222222222222222222222222222222222222222222222222222222222222222222222222222222222222222222222222222222222222222222222222222222222222222222222222222222222222222222"
};
