/* XPM */
static const char *_200px_Ericsson_logo_svg_3[] = {
/* columns rows colors chars-per-pixel */
"50 50 15 1 ",
"  c #00275D",
". c #00275E",
"X c #00275F",
"o c #00285D",
"O c #00285E",
"+ c #00295E",
"@ c #00285F",
"# c #00295F",
"$ c #002860",
"% c #002960",
"& c #002961",
"* c #002A61",
"= c #002A62",
"- c #002A63",
"; c None",
/* pixels */
";;;;;;;;;;;;;;;;;;;;;;;;;;;;;;;;;;;;;;;;@;;;;;;;;;",
";;;;;;;;;;;;;;;;;;;;;;;;;;;;;;;;;;;;;++@==@@;;;;;;",
";;;;;;;;;;;;;;;;;;;;;;;;;;;;;;;;;;@@==@@@@@=;;;;;;",
";;;;;;;;;;;;;;;;;;;;;;;;;;;;;;;-@++@@@@@@@@@@;;;;;",
";;;;;;;;;;;;;;;;;;;;;;;;;;;;@@@-+@@o@@@@@@@o+;;;;;",
";;;;;;;;;;;;;;;;;;;;;;;;;@@@-@@@o@o@o@@@@@o@=;;;;;",
";;;;;;;;;;;;;;;;;;;;;;-@@=@@@@@@@o@o@o@@@@o@=;;;;;",
";;;;;;;;;;;;;;;;;;;@@@-@@@o@@@@@o@o@o@@@@@@@@;;;;;",
";;;;;;;;;;;;;;;;;@+++o@o@@o@o@o@@@@@o@@@@@=-;;;;;;",
";;;;;;;;;;;;;;@@=+@o@@o@@@@o@o@o@@@@@o@+=@@;;;;;;;",
";;;;;;;;;;;@@@@o@@o@@@@o@@@@o@o@@@@@+++@;;;;;;;;;;",
";;;;;;;;;; -@@@@@@@o@oo@@@@o@o@o@@=@+@;;;;;;;;;;;;",
";;;;;;;;;;@@@@@o@@@@@@@@@@@@o@++@@@;;;;;;;;;;;;;;;",
";;;;;;;;;@-@@@o@@@@o@@@@@@@@+@@+;;;;;;;;;;;;;;;;;;",
";;;;;;;;;@-@@@@oo@o@@@@@@@=@=;;;;;;;;;;;;;;;;;;;;;",
";;;;;;;;; - @@o@@o@o@@++@@;;;;;;;;;;;;@@@-;;;;;;;;",
";;;;;;;;;;=@@@@@o+@+=@@;;;;;;;;;;;;@@=++++=@;;;;;;",
";;;;;;;;;;@=@@@@++@+;;;;;;;;;;;;@++=+@@@@@@=;;;;;;",
";;;;;;;;;;;+++=+@;;;;;;;;;;;;+@@++o@@@@@@@@+@;;;;;",
";;;;;;;;;;;;;;;;;;;;;;;;;;=@@=+@@o@o@@@@@@@@@;;;;;",
";;;;;;;;;;;;;;;;;;;;;;;;@+++@@@@o@o@@@@@@@@@@;;;;;",
";;;;;;;;;;;;;;;;;;;;;@@++@@@@@@@@o@o@@@@o@@=@;;;;;",
";;;;;;;;;;;;;;;;;;@@==@@@@@o@o@@o@o@o@@@@+++;;;;;;",
";;;;;;;;;;;;;;;@@==@@@@@@@o@o@@@@o@o@o@@+++;;;;;;;",
";;;;;;;;;;;;@+++@@o@o@@@@@o@o@o@@@@@@+=@@@;;;;;;;;",
";;;;;;;;;;@==@@@oo@o@@@@@o@o@o@o@@+=+@@;;;;;;;;;;;",
";;;;;;;;;;+@@@@@@oo@o@@@o@o@@@o@=@-+;;;;;;;;;;;;;;",
";;;;;;;;;++@@@@@o@@o@o@@@o@o@++@@;;;;;;;;;;;;;;;;;",
";;;;;;;;;@@@o@o@@o@o@@@@@@==@@;;;;;;;;;;;;;;;;;;;;",
";;;;;;;;;@@@@o@oo@o@@@@+=@@;;;;;;;;;;;;;;;;;;;;;;;",
";;;;;;;;;++@o@@@@@@o+=@@;;;;;;;;;;;;++@+=@=;;;;;;;",
";;;;;;;;;;+o@o@@@++@@;;;;;;;;;;;;@@@==@@@@=@;;;;;;",
";;;;;;;;;;+===@=@@@;;;;;;;;;;;;@@=+@o@o@o@+=;;;;;;",
";;;;;;;;;;;;@@+@;;;;;;;;;;;;o@=+@@@@@o@o@o++@;;;;;",
";;;;;;;;;;;;;;;;;;;;;;;;;@@=@@o@@@@@@@@@o@o+@;;;;;",
";;;;;;;;;;;;;;;;;;;;;;@@==@@@o@o@@@@@@@@@o@+@;;;;;",
";;;;;;;;;;;;;;;;;;;@+++@@@o@o@o@@@@o@o@@@@@@;;;;;;",
";;;;;;;;;;;;;;;;@@==+@@@@@@o@o@o@oo@o@@+@+=@;;;;;;",
";;;;;;;;;;;;;@+=+@@@@@@o@@@@o@o@o@oo@@++++;;;;;;;;",
";;;;;;;;;;;@--@@o@o@@@o@@@@@@o@o@o@@++@+;;;;;;;;;;",
";;;;;;;;;;@@@@@@@o@o@o@o@@@@@@@@@@=@+;;;;;;;;;;;;;",
";;;;;;;;;@@@@@@@@@o@o@o@@@@@@@+=@-;;;;;;;;;;;;;;;;",
";;;;;;;;;-@@@o@o@@@@@o@o@@@==@@;;;;;;;;;;;;;;;;;;;",
";;;;;;;;@-@@o@o@@@@@o@o@++@+;;;;;;;;;;;;;;;;;;;;;;",
";;;;;;;;;=@@@o@o@@@@@==@@;;;;;;;;;;;;;;;;;;;;;;;;;",
";;;;;;;;;@@@o@o@@@@+@@@;;;;;;;;;;;;;;;;;;;;;;;;;;;",
";;;;;;;;;;=+@@@+==@@;;;;;;;;;;;;;;;;;;;;;;;;;;;;;;",
";;;;;;;;;;;++++@+;;;;;;;;;;;;;;;;;;;;;;;;;;;;;;;;;",
";;;;;;;;;;;;;;;;;;;;;;;;;;;;;;;;;;;;;;;;;;;;;;;;;;",
";;;;;;;;;;;;;;;;;;;;;;;;;;;;;;;;;;;;;;;;;;;;;;;;;;"
};
